<svg xmlns="http://www.w3.org/2000/svg" width="30" height="30" viewBox="0 0 30 30">
  <metadata><?xpacket begin="﻿" id="W5M0MpCehiHzreSzNTczkc9d"?>
<x:xmpmeta xmlns:x="adobe:ns:meta/" x:xmptk="Adobe XMP Core 5.6-c140 79.160451, 2017/05/06-01:08:21        ">
   <rdf:RDF xmlns:rdf="http://www.w3.org/1999/02/22-rdf-syntax-ns#">
      <rdf:Description rdf:about=""/>
   </rdf:RDF>
</x:xmpmeta>
                                                                                                    
                                                                                                    
                                                                                                    
                                                                                                    
                                                                                                    
                                                                                                    
                                                                                                    
                                                                                                    
                                                                                                    
                                                                                                    
                                                                                                    
                                                                                                    
                                                                                                    
                                                                                                    
                                                                                                    
                                                                                                    
                                                                                                    
                                                                                                    
                                                                                                    
                                                                                                    
                           
<?xpacket end="w"?></metadata>
<defs>
    <style>
      .cls-1 {
        fill: #a0c2df;
        fill-rule: evenodd;
      }
    </style>
  </defs>
  <path id="instagram" class="cls-1" d="M603.879,821H590.121A8.13,8.13,0,0,0,582,829.121v13.758A8.13,8.13,0,0,0,590.121,851h13.758A8.13,8.13,0,0,0,612,842.879V829.121A8.13,8.13,0,0,0,603.879,821ZM597,844.2a8.2,8.2,0,1,1,8.2-8.2A8.212,8.212,0,0,1,597,844.2Zm8.4-14.471a2.424,2.424,0,1,1,2.424-2.424A2.427,2.427,0,0,1,605.4,829.732Zm-8.4-.176A6.444,6.444,0,1,0,603.444,836,6.452,6.452,0,0,0,597,829.556Zm8.4-2.913a0.665,0.665,0,1,0,.665.665A0.665,0.665,0,0,0,605.4,826.643Z" transform="translate(-582 -821)"/>
</svg>
