<svg id="Група_9" data-name="Група 9" xmlns="http://www.w3.org/2000/svg" width="30" height="30" viewBox="0 0 30 30">
  <metadata><?xpacket begin="﻿" id="W5M0MpCehiHzreSzNTczkc9d"?>
<x:xmpmeta xmlns:x="adobe:ns:meta/" x:xmptk="Adobe XMP Core 5.6-c140 79.160451, 2017/05/06-01:08:21        ">
   <rdf:RDF xmlns:rdf="http://www.w3.org/1999/02/22-rdf-syntax-ns#">
      <rdf:Description rdf:about=""/>
   </rdf:RDF>
</x:xmpmeta>
                                                                                                    
                                                                                                    
                                                                                                    
                                                                                                    
                                                                                                    
                                                                                                    
                                                                                                    
                                                                                                    
                                                                                                    
                                                                                                    
                                                                                                    
                                                                                                    
                                                                                                    
                                                                                                    
                                                                                                    
                                                                                                    
                                                                                                    
                                                                                                    
                                                                                                    
                                                                                                    
                           
<?xpacket end="w"?></metadata>
<defs>
    <style>
      .cls-1 {
        font-size: 108.7px;
        font-family: Calypso-Regular, Calypso-Regular, Calypso;
        text-transform: uppercase;
      }

      .cls-1, .cls-2 {
        fill: #a0c2df;
      }

      .cls-2 {
        fill-rule: evenodd;
      }
    </style>
  </defs>
  <text id="о" class="cls-1" transform="translate(32.074 0.617) rotate(180) scale(0.381 0.382)">о</text>
  <path id="Фігура_3" data-name="Фігура 3" class="cls-2" d="M1101.05,244.9a6.852,6.852,0,0,1-2.15-.342,0.924,0.924,0,0,0-.94.2l-1.36,1.029a7.666,7.666,0,0,1-3.39-3.386l1.01-1.33a0.954,0.954,0,0,0,.23-0.966,6.82,6.82,0,0,1-.34-2.156,0.952,0.952,0,0,0-.95-0.948h-2.21a0.946,0.946,0,0,0-.95.948A11.065,11.065,0,0,0,1101.05,249a0.952,0.952,0,0,0,.95-0.947v-2.2A0.952,0.952,0,0,0,1101.05,244.9Z" transform="translate(-1081 -228)"/>
</svg>
